# xmcd
#
# Track frame offsets:
#	150
#	10924
#	21467
#	32152
#	45138
#	56900
#	69914
#	82398
#	92723
#	102521
#	114064
#	123726
#	136157
#	147282
#	158871
#	169703
#
# Disc length: 2402 seconds
#
# Revision: 1
# Processed by: cddbd v1.5.2PL0 Copyright (c) Steve Scherf et al.
# Submitted via: EZCDAudioConverter 2.2.2.1
#
DISCID=d7096010
DTITLE=Dusty Owens - Early Star Of The Wheeling Jamboree
DYEAR=1900
DGENRE=Country
TTITLE0=Hello Operator (1953)
TTITLE1=Hey Honey (1956)
TTITLE2=Cure That Shyness (1956)
TTITLE3=A Place For Homeless Hearts (1956)
TTITLE4=Our Love Affair (1956)
TTITLE5=Forget My Broken Heart (1955)
TTITLE6=Who Do You Think They Would Blame (1955)
TTITLE7=Wouldn't You (1954)
TTITLE8=Give Me A Little Chance (1954)
TTITLE9=Once More (1956)
TTITLE10=It's Goodbye And So Long To You (1956)
TTITLE11=The Life You Want To Live (1953)
TTITLE12=Somewhere She's Waiting (1953)
TTITLE13=Just Call On Me (1953)
TTITLE14=A Love That Once Was Mine (1954)
TTITLE15=They Didn't Know The Difference (But I Did) (1954)
EXTD=
EXTT0=
EXTT1=
EXTT2=
EXTT3=
EXTT4=
EXTT5=
EXTT6=
EXTT7=
EXTT8=
EXTT9=
EXTT10=
EXTT11=
EXTT12=
EXTT13=
EXTT14=
EXTT15=
PLAYORDER=
